# Blender v2.80 (sub 75) OBJ File: 'compass.blend'
# www.blender.org
mtllib compass.mtl
o Cylinder
v 0.000000 -1.000000 -4.000000
v -0.000000 1.000000 -3.598065
v 0.780361 -1.000000 -3.923141
v 0.701948 1.000000 -3.528929
v 1.530734 -1.000000 -3.695518
v 1.376920 1.000000 -3.324178
v 2.222281 -1.000000 -3.325878
v 1.998978 1.000000 -2.991681
v 2.828427 -1.000000 -2.828427
v 2.544216 1.000000 -2.544216
v 3.325879 -1.000000 -2.222281
v 2.991682 1.000000 -1.998977
v 3.695518 -1.000000 -1.530734
v 3.324178 1.000000 -1.376920
v 3.923141 -1.000000 -0.780361
v 3.528929 1.000000 -0.701948
v 4.000000 -1.000000 -0.000000
v 3.598065 1.000000 -0.000000
v 3.923141 -1.000000 0.780361
v 3.528929 1.000000 0.701947
v 3.695518 -1.000000 1.530733
v 3.324178 1.000000 1.376919
v 3.325879 -1.000000 2.222281
v 2.991682 1.000000 1.998977
v 2.828427 -1.000000 2.828427
v 2.544216 1.000000 2.544216
v 2.222281 -1.000000 3.325879
v 1.998977 1.000000 2.991682
v 1.530733 -1.000000 3.695518
v 1.376919 1.000000 3.324178
v 0.780360 -1.000000 3.923141
v 0.701947 1.000000 3.528929
v -0.000001 -1.000000 4.000000
v -0.000001 1.000000 3.598065
v -0.780363 -1.000000 3.923141
v -0.701949 1.000000 3.528929
v -1.530735 -1.000000 3.695517
v -1.376921 1.000000 3.324178
v -2.222283 -1.000000 3.325877
v -1.998979 1.000000 2.991680
v -2.828429 -1.000000 2.828425
v -2.544218 1.000000 2.544214
v -3.325880 -1.000000 2.222279
v -2.991683 1.000000 1.998976
v -3.695519 -1.000000 1.530731
v -3.324179 1.000000 1.376917
v -3.923142 -1.000000 0.780358
v -3.528929 1.000000 0.701944
v -4.000000 -1.000000 -0.000004
v -3.598065 1.000000 -0.000003
v -3.923140 -1.000000 -0.780365
v -3.528928 1.000000 -0.701951
v -3.695516 -1.000000 -1.530738
v -3.324177 1.000000 -1.376923
v -3.325876 -1.000000 -2.222285
v -2.991679 1.000000 -1.998981
v -2.828424 -1.000000 -2.828431
v -2.544213 1.000000 -2.544219
v -2.222276 -1.000000 -3.325881
v -1.998973 1.000000 -2.991684
v -1.530728 -1.000000 -3.695520
v -1.376915 1.000000 -3.324180
v -0.780355 -1.000000 -3.923142
v -0.701942 1.000000 -3.528930
v 0.780361 1.000000 -3.923141
v 0.000000 1.000000 -4.000000
v 1.530734 1.000000 -3.695518
v 2.222281 1.000000 -3.325878
v 2.828427 1.000000 -2.828427
v 3.325879 1.000000 -2.222281
v 3.695518 1.000000 -1.530734
v 3.923141 1.000000 -0.780361
v 4.000000 1.000000 -0.000000
v 3.923141 1.000000 0.780361
v 3.695518 1.000000 1.530733
v 3.325879 1.000000 2.222281
v 2.828427 1.000000 2.828427
v 2.222281 1.000000 3.325879
v 1.530733 1.000000 3.695518
v 0.780360 1.000000 3.923141
v -0.000001 1.000000 4.000000
v -0.780363 1.000000 3.923141
v -1.530735 1.000000 3.695517
v -2.222283 1.000000 3.325877
v -2.828429 1.000000 2.828425
v -3.325880 1.000000 2.222279
v -3.695519 1.000000 1.530731
v -3.923142 1.000000 0.780358
v -4.000000 1.000000 -0.000004
v -3.923140 1.000000 -0.780365
v -3.695516 1.000000 -1.530738
v -3.325876 1.000000 -2.222285
v -2.828424 1.000000 -2.828431
v -2.222276 1.000000 -3.325881
v -1.530728 1.000000 -3.695520
v -0.780355 1.000000 -3.923142
v 0.701948 1.000000 -3.528929
v -0.000000 1.000000 -3.598065
v 1.376920 1.000000 -3.324178
v 1.998978 1.000000 -2.991681
v 2.544216 1.000000 -2.544216
v 2.991682 1.000000 -1.998977
v 3.324178 1.000000 -1.376920
v 3.528929 1.000000 -0.701948
v 3.598065 1.000000 -0.000000
v 3.528929 1.000000 0.701947
v 3.324178 1.000000 1.376919
v 2.991682 1.000000 1.998977
v 2.544216 1.000000 2.544216
v 1.998977 1.000000 2.991682
v 1.376919 1.000000 3.324178
v 0.701947 1.000000 3.528929
v -0.000001 1.000000 3.598065
v -0.701949 1.000000 3.528929
v -1.376921 1.000000 3.324178
v -1.998979 1.000000 2.991680
v -2.544218 1.000000 2.544214
v -2.991683 1.000000 1.998976
v -3.324179 1.000000 1.376917
v -3.528929 1.000000 0.701944
v -3.598065 1.000000 -0.000003
v -3.528928 1.000000 -0.701951
v -3.324177 1.000000 -1.376923
v -2.991679 1.000000 -1.998981
v -2.544213 1.000000 -2.544219
v -1.998973 1.000000 -2.991684
v -1.376915 1.000000 -3.324180
v -0.701942 1.000000 -3.528930
v 0.701948 1.000000 -3.528929
v -0.000000 1.000000 -3.598065
v 1.376920 1.000000 -3.324178
v 1.998978 1.000000 -2.991681
v 2.544216 1.000000 -2.544216
v 2.991682 1.000000 -1.998977
v 3.324178 1.000000 -1.376920
v 3.528929 1.000000 -0.701948
v 3.598065 1.000000 -0.000000
v 3.528929 1.000000 0.701947
v 3.324178 1.000000 1.376919
v 2.991682 1.000000 1.998977
v 2.544216 1.000000 2.544216
v 1.998977 1.000000 2.991682
v 1.376919 1.000000 3.324178
v 0.701947 1.000000 3.528929
v -0.000001 1.000000 3.598065
v -0.701949 1.000000 3.528929
v -1.376921 1.000000 3.324178
v -1.998979 1.000000 2.991680
v -2.544218 1.000000 2.544214
v -2.991683 1.000000 1.998976
v -3.324179 1.000000 1.376917
v -3.528929 1.000000 0.701944
v -3.598065 1.000000 -0.000003
v -3.528928 1.000000 -0.701951
v -3.324177 1.000000 -1.376923
v -2.991679 1.000000 -1.998981
v -2.544213 1.000000 -2.544219
v -1.998973 1.000000 -2.991684
v -1.376915 1.000000 -3.324180
v -0.701942 1.000000 -3.528930
v 0.701948 0.000000 -3.528929
v -0.000000 0.000000 -3.598065
v 1.376920 0.000000 -3.324178
v 1.998978 0.000000 -2.991681
v 2.544216 0.000000 -2.544216
v 2.991682 0.000000 -1.998977
v 3.324178 0.000000 -1.376920
v 3.528929 0.000000 -0.701948
v 3.598065 0.000000 -0.000000
v 3.528929 0.000000 0.701947
v 3.324178 0.000000 1.376919
v 2.991682 0.000000 1.998977
v 2.544216 0.000000 2.544216
v 1.998977 0.000000 2.991682
v 1.376919 0.000000 3.324178
v 0.701947 0.000000 3.528929
v -0.000001 0.000000 3.598065
v -0.701949 0.000000 3.528929
v -1.376921 0.000000 3.324178
v -1.998979 0.000000 2.991680
v -2.544218 0.000000 2.544214
v -2.991683 0.000000 1.998976
v -3.324179 0.000000 1.376917
v -3.528929 0.000000 0.701944
v -3.598065 0.000000 -0.000003
v -3.528928 0.000000 -0.701951
v -3.324177 0.000000 -1.376923
v -2.991679 0.000000 -1.998981
v -2.544213 0.000000 -2.544219
v -1.998973 0.000000 -2.991684
v -1.376915 0.000000 -3.324180
v -0.701942 0.000000 -3.528930
v 0.000000 0.000000 -3.000000
v 0.000000 0.000000 -3.000000
v -0.300000 0.100000 0.000000
v 0.300000 0.100000 0.000000
v -0.300000 0.100000 0.000000
v 0.300000 0.100000 0.000000
v 0.000000 0.000000 -3.000000
v -0.300000 0.100000 0.000000
v 0.300000 0.100000 0.000000
v -0.300000 0.599723 -0.016657
v 0.000000 0.499722 -3.016657
v 0.300000 0.599723 -0.016657
v -0.300000 0.599723 0.016657
v 0.300000 0.599723 0.016657
v 0.000000 0.499722 3.016657
v -0.300000 0.599723 -0.016657
v 0.000000 0.499722 -3.016657
v 0.300000 0.599723 -0.016657
v -0.300000 0.599723 0.016657
v 0.300000 0.599723 0.016657
v 0.000000 0.499722 3.016657
v -0.600000 0.599723 -0.016657
v 0.000000 0.499722 -3.016657
v 0.600000 0.599723 -0.016657
v -0.600000 0.599723 0.016657
v 0.600000 0.599723 0.016657
v 0.000000 0.499722 3.016657
v -0.600000 1.029208 -0.016657
v 0.000000 0.929208 -3.016657
v 0.600000 1.029208 -0.016657
v -0.600000 1.029208 0.016657
v 0.600000 1.029208 0.016657
v 0.000000 0.929208 3.016657
vt 1.000000 0.500000
vt 1.000000 1.000000
vt 0.968750 1.000000
vt 0.968750 0.500000
vt 0.937500 1.000000
vt 0.937500 0.500000
vt 0.906250 1.000000
vt 0.906250 0.500000
vt 0.875000 1.000000
vt 0.875000 0.500000
vt 0.843750 1.000000
vt 0.843750 0.500000
vt 0.812500 1.000000
vt 0.812500 0.500000
vt 0.781250 1.000000
vt 0.781250 0.500000
vt 0.750000 1.000000
vt 0.750000 0.500000
vt 0.718750 1.000000
vt 0.718750 0.500000
vt 0.687500 1.000000
vt 0.687500 0.500000
vt 0.656250 1.000000
vt 0.656250 0.500000
vt 0.625000 1.000000
vt 0.625000 0.500000
vt 0.593750 1.000000
vt 0.593750 0.500000
vt 0.562500 1.000000
vt 0.562500 0.500000
vt 0.531250 1.000000
vt 0.531250 0.500000
vt 0.500000 1.000000
vt 0.500000 0.500000
vt 0.468750 1.000000
vt 0.468750 0.500000
vt 0.437500 1.000000
vt 0.437500 0.500000
vt 0.406250 1.000000
vt 0.406250 0.500000
vt 0.375000 1.000000
vt 0.375000 0.500000
vt 0.343750 1.000000
vt 0.343750 0.500000
vt 0.312500 1.000000
vt 0.312500 0.500000
vt 0.281250 1.000000
vt 0.281250 0.500000
vt 0.250000 1.000000
vt 0.250000 0.500000
vt 0.218750 1.000000
vt 0.218750 0.500000
vt 0.187500 1.000000
vt 0.187500 0.500000
vt 0.156250 1.000000
vt 0.156250 0.500000
vt 0.125000 1.000000
vt 0.125000 0.500000
vt 0.093750 1.000000
vt 0.093750 0.500000
vt 0.062500 1.000000
vt 0.062500 0.500000
vt 0.292117 0.038264
vt 0.332615 0.050549
vt 0.332615 0.050549
vt 0.292117 0.038264
vt 0.031250 1.000000
vt 0.031250 0.500000
vt 0.000000 1.000000
vt 0.000000 0.500000
vt 0.750000 0.490000
vt 0.796822 0.485388
vt 0.841844 0.471731
vt 0.883337 0.449553
vt 0.919706 0.419706
vt 0.949553 0.383337
vt 0.971731 0.341844
vt 0.985388 0.296822
vt 0.990000 0.250000
vt 0.985388 0.203178
vt 0.971731 0.158156
vt 0.949553 0.116663
vt 0.919706 0.080294
vt 0.883337 0.050447
vt 0.841844 0.028269
vt 0.796822 0.014612
vt 0.750000 0.010000
vt 0.703178 0.014612
vt 0.658156 0.028269
vt 0.616663 0.050447
vt 0.580294 0.080294
vt 0.550447 0.116663
vt 0.528269 0.158156
vt 0.514611 0.203179
vt 0.510000 0.250000
vt 0.514612 0.296822
vt 0.528269 0.341844
vt 0.550447 0.383337
vt 0.580295 0.419706
vt 0.616663 0.449553
vt 0.658156 0.471731
vt 0.703179 0.485389
vt 0.250000 0.465884
vt 0.292117 0.461736
vt 0.296822 0.485388
vt 0.250000 0.490000
vt 0.332615 0.449451
vt 0.341844 0.471731
vt 0.369939 0.429501
vt 0.383337 0.449553
vt 0.402653 0.402653
vt 0.419706 0.419706
vt 0.429501 0.369939
vt 0.449553 0.383337
vt 0.449451 0.332615
vt 0.471731 0.341844
vt 0.461736 0.292117
vt 0.485388 0.296822
vt 0.465884 0.250000
vt 0.490000 0.250000
vt 0.461736 0.207883
vt 0.485388 0.203178
vt 0.449451 0.167385
vt 0.471731 0.158156
vt 0.429501 0.130061
vt 0.449553 0.116663
vt 0.402653 0.097347
vt 0.419706 0.080294
vt 0.369939 0.070499
vt 0.383337 0.050447
vt 0.332615 0.050549
vt 0.341844 0.028269
vt 0.292117 0.038264
vt 0.296822 0.014612
vt 0.250000 0.034116
vt 0.250000 0.010000
vt 0.207883 0.038264
vt 0.203178 0.014612
vt 0.167385 0.050549
vt 0.158156 0.028269
vt 0.130061 0.070499
vt 0.116663 0.050447
vt 0.097347 0.097347
vt 0.080294 0.080294
vt 0.070499 0.130061
vt 0.050447 0.116663
vt 0.050549 0.167385
vt 0.028269 0.158156
vt 0.038264 0.207883
vt 0.014611 0.203179
vt 0.034116 0.250000
vt 0.010000 0.250000
vt 0.038264 0.292117
vt 0.014612 0.296822
vt 0.050549 0.332615
vt 0.028269 0.341844
vt 0.070499 0.369939
vt 0.050447 0.383337
vt 0.097347 0.402653
vt 0.080295 0.419706
vt 0.130062 0.429501
vt 0.116663 0.449553
vt 0.167385 0.449451
vt 0.158156 0.471731
vt 0.207884 0.461736
vt 0.203179 0.485389
vt 0.250000 0.465884
vt 0.292117 0.461736
vt 0.332615 0.449451
vt 0.369939 0.429501
vt 0.402653 0.402653
vt 0.429501 0.369939
vt 0.449451 0.332615
vt 0.461736 0.292117
vt 0.465884 0.250000
vt 0.461736 0.207883
vt 0.449451 0.167385
vt 0.429501 0.130061
vt 0.402653 0.097347
vt 0.369939 0.070499
vt 0.250000 0.034116
vt 0.207883 0.038264
vt 0.167385 0.050549
vt 0.130061 0.070499
vt 0.097347 0.097347
vt 0.070499 0.130061
vt 0.050549 0.167385
vt 0.038264 0.207883
vt 0.034116 0.250000
vt 0.038264 0.292117
vt 0.050549 0.332615
vt 0.070499 0.369939
vt 0.097347 0.402653
vt 0.130062 0.429501
vt 0.167385 0.449451
vt 0.207884 0.461736
vt 0.167385 0.050549
vt 0.207883 0.038264
vt 0.207883 0.038264
vt 0.167385 0.050549
vt 0.292117 0.461736
vt 0.332615 0.449451
vt 0.097347 0.402653
vt 0.130062 0.429501
vt 0.250000 0.034116
vt 0.369939 0.429501
vt 0.167385 0.449451
vt 0.402653 0.402653
vt 0.207884 0.461736
vt 0.429501 0.369939
vt 0.250000 0.465884
vt 0.130061 0.070499
vt 0.449451 0.332615
vt 0.097347 0.097347
vt 0.461736 0.292117
vt 0.070499 0.130061
vt 0.465884 0.250000
vt 0.050549 0.167385
vt 0.461736 0.207883
vt 0.038264 0.207883
vt 0.449451 0.167385
vt 0.034116 0.250000
vt 0.429501 0.130061
vt 0.038264 0.292117
vt 0.402653 0.097347
vt 0.050549 0.332615
vt 0.369939 0.070499
vt 0.070499 0.369939
vt 0.292117 0.461736
vt 0.250000 0.465884
vt 0.207884 0.461736
vt 0.167385 0.449451
vt 0.130062 0.429501
vt 0.097347 0.402653
vt 0.070499 0.369939
vt 0.050549 0.332615
vt 0.038264 0.292117
vt 0.034116 0.250000
vt 0.038264 0.207883
vt 0.050549 0.167385
vt 0.070499 0.130061
vt 0.097347 0.097347
vt 0.130061 0.070499
vt 0.250000 0.034116
vt 0.292117 0.038264
vt 0.332615 0.050549
vt 0.369939 0.070499
vt 0.402653 0.097347
vt 0.429501 0.130061
vt 0.449451 0.167385
vt 0.461736 0.207883
vt 0.465884 0.250000
vt 0.461736 0.292117
vt 0.449451 0.332615
vt 0.429501 0.369939
vt 0.402653 0.402653
vt 0.369939 0.429501
vt 0.332615 0.449451
vt 0.875000 0.625000
vt 0.625000 0.625000
vt 0.625000 0.625000
vt 0.875000 0.625000
vt 0.625000 0.625000
vt 0.875000 0.625000
vt 0.875000 0.625000
vt 0.625000 0.625000
vt 0.625000 0.625000
vt 0.875000 0.625000
vt 0.875000 0.625000
vt 0.625000 0.625000
vt 0.625000 0.625000
vt 0.875000 0.625000
vt 0.625000 0.625000
vt 0.875000 0.625000
vt 0.625000 0.125000
vt 0.625000 0.000000
vt 0.625000 0.000000
vt 0.625000 0.125000
vt 0.625000 0.750000
vt 0.375000 0.750000
vt 0.375000 0.750000
vt 0.625000 0.500000
vt 0.625000 0.500000
vt 0.875000 0.500000
vn 0.0980 0.0000 -0.9952
vn 0.2903 0.0000 -0.9569
vn 0.4714 0.0000 -0.8819
vn 0.6344 0.0000 -0.7730
vn 0.7730 0.0000 -0.6344
vn 0.8819 0.0000 -0.4714
vn 0.9569 0.0000 -0.2903
vn 0.9952 0.0000 -0.0980
vn 0.9952 0.0000 0.0980
vn 0.9569 0.0000 0.2903
vn 0.8819 0.0000 0.4714
vn 0.7730 0.0000 0.6344
vn 0.6344 0.0000 0.7730
vn 0.4714 0.0000 0.8819
vn 0.2903 0.0000 0.9569
vn 0.0980 0.0000 0.9952
vn -0.0980 0.0000 0.9952
vn -0.2903 0.0000 0.9569
vn -0.4714 0.0000 0.8819
vn -0.6344 0.0000 0.7730
vn -0.7730 0.0000 0.6344
vn -0.8819 0.0000 0.4714
vn -0.9569 0.0000 0.2903
vn -0.9952 0.0000 0.0980
vn -0.9952 0.0000 -0.0980
vn -0.9569 0.0000 -0.2903
vn -0.8819 0.0000 -0.4714
vn -0.7730 0.0000 -0.6344
vn -0.6344 0.0000 -0.7730
vn -0.4714 0.0000 -0.8819
vn 0.0000 0.0000 1.0000
vn -0.2903 0.0000 -0.9569
vn -0.0980 0.0000 -0.9952
vn 0.0000 -1.0000 -0.0000
vn 0.0000 1.0000 0.0000
vn 0.0000 0.0000 -1.0000
vn -0.9806 0.0000 0.1961
vn 0.0000 0.9994 0.0333
vn 0.9806 0.0000 0.1961
vn -0.9806 0.0000 -0.1961
vn 0.0000 0.9994 -0.0333
vn 0.9806 0.0000 -0.1961
usemtl Material.001
s off
f 1/1/1 66/2/1 65/3/1 3/4/1
f 3/4/2 65/3/2 67/5/2 5/6/2
f 5/6/3 67/5/3 68/7/3 7/8/3
f 7/8/4 68/7/4 69/9/4 9/10/4
f 9/10/5 69/9/5 70/11/5 11/12/5
f 11/12/6 70/11/6 71/13/6 13/14/6
f 13/14/7 71/13/7 72/15/7 15/16/7
f 15/16/8 72/15/8 73/17/8 17/18/8
f 17/18/9 73/17/9 74/19/9 19/20/9
f 19/20/10 74/19/10 75/21/10 21/22/10
f 21/22/11 75/21/11 76/23/11 23/24/11
f 23/24/12 76/23/12 77/25/12 25/26/12
f 25/26/13 77/25/13 78/27/13 27/28/13
f 27/28/14 78/27/14 79/29/14 29/30/14
f 29/30/15 79/29/15 80/31/15 31/32/15
f 31/32/16 80/31/16 81/33/16 33/34/16
f 33/34/17 81/33/17 82/35/17 35/36/17
f 35/36/18 82/35/18 83/37/18 37/38/18
f 37/38/19 83/37/19 84/39/19 39/40/19
f 39/40/20 84/39/20 85/41/20 41/42/20
f 41/42/21 85/41/21 86/43/21 43/44/21
f 43/44/22 86/43/22 87/45/22 45/46/22
f 45/46/23 87/45/23 88/47/23 47/48/23
f 47/48/24 88/47/24 89/49/24 49/50/24
f 49/50/25 89/49/25 90/51/25 51/52/25
f 51/52/26 90/51/26 91/53/26 53/54/26
f 53/54/27 91/53/27 92/55/27 55/56/27
f 55/56/28 92/55/28 93/57/28 57/58/28
f 57/58/29 93/57/29 94/59/29 59/60/29
f 59/60/30 94/59/30 95/61/30 61/62/30
f 32/63/31 30/64/31 143/65/31 144/66/31
f 61/62/32 95/61/32 96/67/32 63/68/32
f 63/68/33 96/67/33 66/69/33 1/70/33
f 1/71/34 3/72/34 5/73/34 7/74/34 9/75/34 11/76/34 13/77/34 15/78/34 17/79/34 19/80/34 21/81/34 23/82/34 25/83/34 27/84/34 29/85/34 31/86/34 33/87/34 35/88/34 37/89/34 39/90/34 41/91/34 43/92/34 45/93/34 47/94/34 49/95/34 51/96/34 53/97/34 55/98/34 57/99/34 59/100/34 61/101/34 63/102/34
f 98/103/35 97/104/35 65/105/35 66/106/35
f 97/104/35 99/107/35 67/108/35 65/105/35
f 99/107/35 100/109/35 68/110/35 67/108/35
f 100/109/35 101/111/35 69/112/35 68/110/35
f 101/111/35 102/113/35 70/114/35 69/112/35
f 102/113/35 103/115/35 71/116/35 70/114/35
f 103/115/35 104/117/35 72/118/35 71/116/35
f 104/117/35 105/119/35 73/120/35 72/118/35
f 105/119/35 106/121/35 74/122/35 73/120/35
f 106/121/35 107/123/35 75/124/35 74/122/35
f 107/123/35 108/125/35 76/126/35 75/124/35
f 108/125/35 109/127/35 77/128/35 76/126/35
f 109/127/35 110/129/35 78/130/35 77/128/35
f 110/129/35 111/131/35 79/132/35 78/130/35
f 111/131/35 112/133/35 80/134/35 79/132/35
f 112/133/35 113/135/35 81/136/35 80/134/35
f 113/135/35 114/137/35 82/138/35 81/136/35
f 114/137/35 115/139/35 83/140/35 82/138/35
f 115/139/35 116/141/35 84/142/35 83/140/35
f 116/141/35 117/143/35 85/144/35 84/142/35
f 117/143/35 118/145/35 86/146/35 85/144/35
f 118/145/35 119/147/35 87/148/35 86/146/35
f 119/147/35 120/149/35 88/150/35 87/148/35
f 120/149/35 121/151/35 89/152/35 88/150/35
f 121/151/35 122/153/35 90/154/35 89/152/35
f 122/153/35 123/155/35 91/156/35 90/154/35
f 123/155/35 124/157/35 92/158/35 91/156/35
f 124/157/35 125/159/35 93/160/35 92/158/35
f 125/159/35 126/161/35 94/162/35 93/160/35
f 126/161/35 127/163/35 95/164/35 94/162/35
f 127/163/35 128/165/35 96/166/35 95/164/35
f 128/165/35 98/103/35 66/106/35 96/166/35
f 2/167/31 4/168/31 97/104/31 98/103/31
f 4/168/31 6/169/31 99/107/31 97/104/31
f 6/169/31 8/170/31 100/109/31 99/107/31
f 8/170/31 10/171/31 101/111/31 100/109/31
f 10/171/31 12/172/31 102/113/31 101/111/31
f 12/172/31 14/173/31 103/115/31 102/113/31
f 14/173/31 16/174/31 104/117/31 103/115/31
f 16/174/31 18/175/31 105/119/31 104/117/31
f 18/175/31 20/176/31 106/121/31 105/119/31
f 20/176/31 22/177/31 107/123/31 106/121/31
f 22/177/31 24/178/31 108/125/31 107/123/31
f 24/178/31 26/179/31 109/127/31 108/125/31
f 26/179/31 28/180/31 110/129/31 109/127/31
f 28/180/31 30/64/31 111/131/31 110/129/31
f 30/64/31 32/63/31 112/133/31 111/131/31
f 32/63/31 34/181/31 113/135/31 112/133/31
f 34/181/31 36/182/31 114/137/31 113/135/31
f 36/182/31 38/183/31 115/139/31 114/137/31
f 38/183/31 40/184/31 116/141/31 115/139/31
f 40/184/31 42/185/31 117/143/31 116/141/31
f 42/185/31 44/186/31 118/145/31 117/143/31
f 44/186/31 46/187/31 119/147/31 118/145/31
f 46/187/31 48/188/31 120/149/31 119/147/31
f 48/188/31 50/189/31 121/151/31 120/149/31
f 50/189/31 52/190/31 122/153/31 121/151/31
f 52/190/31 54/191/31 123/155/31 122/153/31
f 54/191/31 56/192/31 124/157/31 123/155/31
f 56/192/31 58/193/31 125/159/31 124/157/31
f 58/193/31 60/194/31 126/161/31 125/159/31
f 60/194/31 62/195/31 127/163/31 126/161/31
f 62/195/31 64/196/31 128/165/31 127/163/31
f 64/196/31 2/167/31 98/103/31 128/165/31
f 147/197/2 146/198/2 178/199/2 179/200/2
f 6/169/31 4/168/31 129/201/31 131/202/31
f 60/194/31 58/193/31 157/203/31 158/204/31
f 34/181/31 32/63/31 144/66/31 145/205/31
f 8/170/31 6/169/31 131/202/31 132/206/31
f 62/195/31 60/194/31 158/204/31 159/207/31
f 36/182/31 34/181/31 145/205/31 146/198/31
f 10/171/31 8/170/31 132/206/31 133/208/31
f 64/196/31 62/195/31 159/207/31 160/209/31
f 38/183/31 36/182/31 146/198/31 147/197/31
f 12/172/31 10/171/31 133/208/31 134/210/31
f 2/167/31 64/196/31 160/209/31 130/211/31
f 40/184/31 38/183/31 147/197/31 148/212/31
f 14/173/31 12/172/31 134/210/31 135/213/31
f 42/185/31 40/184/31 148/212/31 149/214/31
f 16/174/31 14/173/31 135/213/31 136/215/31
f 44/186/31 42/185/31 149/214/31 150/216/31
f 18/175/31 16/174/31 136/215/31 137/217/31
f 46/187/31 44/186/31 150/216/31 151/218/31
f 20/176/31 18/175/31 137/217/31 138/219/31
f 48/188/31 46/187/31 151/218/31 152/220/31
f 22/177/31 20/176/31 138/219/31 139/221/31
f 50/189/31 48/188/31 152/220/31 153/222/31
f 24/178/31 22/177/31 139/221/31 140/223/31
f 52/190/31 50/189/31 153/222/31 154/224/31
f 26/179/31 24/178/31 140/223/31 141/225/31
f 54/191/31 52/190/31 154/224/31 155/226/31
f 28/180/31 26/179/31 141/225/31 142/227/31
f 56/192/31 54/191/31 155/226/31 156/228/31
f 30/64/31 28/180/31 142/227/31 143/65/31
f 4/168/31 2/167/31 130/211/31 129/201/31
f 58/193/31 56/192/31 156/228/31 157/203/31
f 161/229/35 162/230/35 192/231/35 191/232/35 190/233/35 189/234/35 188/235/35 187/236/35 186/237/35 185/238/35 184/239/35 183/240/35 182/241/35 181/242/35 180/243/35 179/200/35 178/199/35 177/244/35 176/245/35 175/246/35 174/247/35 173/248/35 172/249/35 171/250/35 170/251/35 169/252/35 168/253/35 167/254/35 166/255/35 165/256/35 164/257/35 163/258/35
f 134/210/21 133/208/21 165/256/21 166/255/21
f 130/211/16 160/209/16 192/231/16 162/230/16
f 148/212/3 147/197/3 179/200/3 180/243/3
f 135/213/22 134/210/22 166/255/22 167/254/22
f 149/214/4 148/212/4 180/243/4 181/242/4
f 136/215/23 135/213/23 167/254/23 168/253/23
f 150/216/5 149/214/5 181/242/5 182/241/5
f 137/217/24 136/215/24 168/253/24 169/252/24
f 151/218/6 150/216/6 182/241/6 183/240/6
f 138/219/25 137/217/25 169/252/25 170/251/25
f 152/220/7 151/218/7 183/240/7 184/239/7
f 139/221/26 138/219/26 170/251/26 171/250/26
f 153/222/8 152/220/8 184/239/8 185/238/8
f 140/223/27 139/221/27 171/250/27 172/249/27
f 154/224/9 153/222/9 185/238/9 186/237/9
f 141/225/28 140/223/28 172/249/28 173/248/28
f 155/226/10 154/224/10 186/237/10 187/236/10
f 142/227/29 141/225/29 173/248/29 174/247/29
f 156/228/11 155/226/11 187/236/11 188/235/11
f 143/65/30 142/227/30 174/247/30 175/246/30
f 129/201/17 130/211/17 162/230/17 161/229/17
f 157/203/12 156/228/12 188/235/12 189/234/12
f 144/66/32 143/65/32 175/246/32 176/245/32
f 131/202/18 129/201/18 161/229/18 163/258/18
f 158/204/13 157/203/13 189/234/13 190/233/13
f 145/205/33 144/66/33 176/245/33 177/244/33
f 132/206/19 131/202/19 163/258/19 164/257/19
f 159/207/14 158/204/14 190/233/14 191/232/14
f 146/198/1 145/205/1 177/244/1 178/199/1
f 133/208/20 132/206/20 164/257/20 165/256/20
f 160/209/15 159/207/15 191/232/15 192/231/15
f 202/259/31 204/260/31 210/261/31 208/262/31
f 206/263/31 205/264/31 211/265/31 212/266/31
f 218/267/36 217/268/36 223/269/36 224/270/36
f 212/266/31 211/265/31 217/268/31 218/267/31
f 208/262/31 210/261/31 216/271/31 214/272/31
f 214/272/31 216/271/31 222/273/31 220/274/31
usemtl Material.002
f 217/275/37 219/276/37 225/277/37 223/278/37
f 224/270/38 223/269/38 225/279/38
f 219/280/39 218/267/39 224/270/39 225/281/39
usemtl Material.003
f 215/282/40 214/272/40 220/274/40 221/283/40
f 221/284/41 220/274/41 222/273/41
f 216/271/42 215/282/42 221/283/42 222/273/42
l 195 197
l 199 194
l 195 200
l 201 198
l 196 198
l 199 193
l 206 207
l 207 205
l 213 207
l 203 209
l 209 215
